<svg version="1.1" id="_x31_0" xmlns="http://www.w3.org/2000/svg" x="0" y="0" viewBox="0 0 512 512" style="width:32px;height:32px;opacity:1" xml:space="preserve"><style>.st0{fill:#374149}</style><path class="st0" d="M511.323 318.691c-3.621-34.816-22.43-65.808-50.347-85.394.281-5.543.14-11.106-.438-16.633-5.75-54.914-51.688-96.324-106.852-96.324-3.746 0-7.539.199-11.281.59l-.09.012c-26.938-37.078-70.21-59.746-117.41-59.75-5.07 0-10.21.27-15.277.801C144.265 68.84 92.464 119.23 81.569 181.961 28.058 206.882-5.56 263.778.761 324.465c2.738 25.39 12.152 49.414 27.246 69.606 26.489 35.516 68.734 56.738 112.989 56.738h248.203c.43 0 .898-.004 1.402-.016.714.016 1.312.016 1.758.016 3.574 0 7.348-.187 11.883-.59l.347-.031.344-.039a119.999 119.999 0 0 0 59.258-23.359l.52-.395c1.5-1.14 3.55-2.703 5.766-4.683l.343-.301 2.676-2.359.481-.426.469-.441c27.381-25.837 40.823-62.099 36.877-99.494zM317.288 181.875l.008-.004.062.148 11.93-5.64c5.914-2.79 12.098-4.543 18.379-5.2 2-.21 4.027-.316 6.019-.316 29.219 0 53.555 21.953 56.602 51.062.973 9.297-.301 18.414-3.785 27.098l-4.657 11.602-.285.684h.012l-.059.152 12.703 4.246c25.676 8.586 44.066 31.457 46.86 58.285 2.27 21.516-5.442 42.387-21.157 57.305l-2.461 2.168-.66.582c-.855.766-1.762 1.438-2.695 2.152l-.262.199c-9.989 7.504-21.852 12.176-34.078 13.492-3.008.27-5.363.395-7.406.395H391.659l-1.676-.168-1.007.168H140.995c-28.379 0-55.489-13.63-72.52-36.465-9.676-12.942-15.714-28.379-17.465-44.59-4.703-45.18 25.074-87.086 69.266-97.477l10.016-2.355-.282-10.285c-1.344-49.196 35.942-91.746 84.879-96.871a95.536 95.536 0 0 1 10.012-.524c38.23 0 72.515 22.821 87.347 58.133l4.836 11.52.204.504z" style="fill:#1e40af"/><path class="st0" d="M298.441 253.996v-4.422c0-25.958-19.012-47.114-42.442-47.114-23.367 0-42.438 21.156-42.438 47.114v4.422h-7.77c-9.16 0-16.61 7.454-16.61 16.672v73.641c0 9.156 7.45 16.61 16.61 16.61H306.21c9.157 0 16.606-7.454 16.606-16.61v-73.641c0-9.218-7.449-16.672-16.606-16.672h-7.769zm-42.442-29.05c11.054 0 19.957 11.05 19.957 24.629v6.675h-39.914v-6.675c0-13.579 8.968-24.629 19.957-24.629z" style="fill:#1e40af"/></svg>